<svg width="17" height="19" viewBox="0 0 17 19" fill="none" xmlns="http://www.w3.org/2000/svg">
<path d="M13.5502 17.78C12.5702 18.73 11.5002 18.58 10.4702 18.13C9.38016 17.67 8.38016 17.65 7.23016 18.13C5.79016 18.75 5.03016 18.57 4.17016 17.78C-0.709836 12.75 0.0101643 5.09 5.55016 4.81C6.90016 4.88 7.84016 5.55 8.63016 5.61C9.81016 5.37 10.9402 4.68 12.2002 4.77C13.7102 4.89 14.8502 5.49 15.6002 6.57C12.4802 8.44 13.2202 12.55 16.0802 13.7C15.5102 15.2 14.7702 16.69 13.5402 17.79L13.5502 17.78ZM8.53016 4.75C8.38016 2.52 10.1902 0.68 12.2702 0.5C12.5602 3.08 9.93016 5 8.53016 4.75Z" fill="black"/>
</svg>
