<svg width="29" height="19" viewBox="0 0 29 19" fill="none" xmlns="http://www.w3.org/2000/svg">
<path d="M2.12496 18.5609C1.69112 18.5609 1.3272 18.4139 1.03321 18.1199C0.739219 17.826 0.592734 17.4626 0.593755 17.0297C0.593755 16.5959 0.740751 16.232 1.03474 15.938C1.32873 15.644 1.69214 15.4975 2.12496 15.4985H26.6242C27.058 15.4985 27.4219 15.6455 27.7159 15.9395C28.0099 16.2335 28.1564 16.5969 28.1554 17.0297C28.1554 17.4636 28.0084 17.8275 27.7144 18.1215C27.4204 18.4155 27.057 18.562 26.6242 18.5609H2.12496ZM2.12496 10.9049C1.69112 10.9049 1.3272 10.7579 1.03321 10.4639C0.739219 10.17 0.592734 9.80655 0.593755 9.37373C0.593755 8.93989 0.740751 8.57597 1.03474 8.28198C1.32873 7.98799 1.69214 7.84151 2.12496 7.84253H26.6242C27.058 7.84253 27.4219 7.98952 27.7159 8.28351C28.0099 8.57751 28.1564 8.94091 28.1554 9.37373C28.1554 9.80757 28.0084 10.1715 27.7144 10.4655C27.4204 10.7595 27.057 10.906 26.6242 10.9049H2.12496ZM2.12496 3.24893C1.69112 3.24893 1.3272 3.10193 1.03321 2.80794C0.739219 2.51395 0.592734 2.15055 0.593755 1.71773C0.593755 1.28389 0.740751 0.919974 1.03474 0.625983C1.32873 0.331993 1.69214 0.185508 2.12496 0.186529H26.6242C27.058 0.186529 27.4219 0.333524 27.7159 0.627515C28.0099 0.921505 28.1564 1.28491 28.1554 1.71773C28.1554 2.15157 28.0084 2.51548 27.7144 2.80947C27.4204 3.10346 27.057 3.24995 26.6242 3.24893H2.12496Z" fill="black"/>
</svg>
