<svg width="1440" height="757" viewBox="0 0 1440 757" fill="none" xmlns="http://www.w3.org/2000/svg">
<path d="M222.5 -5L222.5 757M324.5 -5L324.5 757M426.5 -5L426.5 757M528.5 -5L528.5 757M630.5 -5L630.5 757M732.5 -5L732.5 757M834.5 -5L834.5 757M936.5 -5L936.5 757M1038.5 -5V757M1140.5 -5V757M1242.5 -5V757M0 113.5H1440M0 229.5H1440M0 345.5H1440M0 461.5H1440M0 577.5H1440M0 693.5H1440" stroke="url(#paint0_radial_1797_4479)" stroke-opacity="0.33" stroke-dasharray="13 13"/>
<defs>
<radialGradient id="paint0_radial_1797_4479" cx="0" cy="0" r="1" gradientUnits="userSpaceOnUse" gradientTransform="translate(720 286.5) rotate(90) scale(559.5 1057.32)">
<stop offset="0.148075" stop-color="#737373" stop-opacity="0.3"/>
<stop offset="1" stop-color="#737373"/>
</radialGradient>
</defs>
</svg>
