<svg width="188" height="108" viewBox="0 0 188 108" fill="none" xmlns="http://www.w3.org/2000/svg">
<g clip-path="url(#clip0_322_1197)">
<path fill-rule="evenodd" clip-rule="evenodd" d="M0.0723162 97.8508H0.0646362V68.6562L0.0723162 97.8508Z" fill="#6666FF"/>
<path fill-rule="evenodd" clip-rule="evenodd" d="M0.0646362 39.9409H19.5747V53.3751C11.8314 56.7342 5.12288 62.0315 0.0646362 68.6555V39.9399V39.9409Z" fill="white"/>
<path fill-rule="evenodd" clip-rule="evenodd" d="M29.3293 30.187H48.8393V50.3134C45.6867 49.6769 42.4237 49.3438 39.0848 49.3438C35.7449 49.3438 32.4819 49.6769 29.3302 50.3134V30.187H29.3293Z" fill="white"/>
<path fill-rule="evenodd" clip-rule="evenodd" d="M58.5939 39.9409H78.103V68.6564C73.0448 62.0324 66.3363 56.7352 58.5939 53.3761V39.9419V39.9409Z" fill="white"/>
<path d="M19.5747 10.6763H0.0646362V30.1863H19.5747V10.6763Z" fill="white"/>
<path d="M78.104 10.6763H58.5939V30.1863H78.104V10.6763Z" fill="white"/>
<path d="M48.8393 0.922363H29.3293V20.4324H48.8393V0.922363Z" fill="white"/>
<path fill-rule="evenodd" clip-rule="evenodd" d="M19.4662 97.8508C19.783 87.2889 28.4451 78.8236 39.0838 78.8236C49.7226 78.8236 58.3846 87.2889 58.7014 97.8508H78.0954C77.7738 76.5782 60.4333 59.4316 39.0838 59.4316C17.7344 59.4316 0.392951 76.5782 0.0723114 97.8508H19.4662Z" fill="#6666FF"/>
<path d="M105.488 36V10.7583H111.182V36H105.488ZM97.4735 15.3641V10.3956H119.197V15.3641H97.4735Z" fill="white"/>
<path d="M122.136 36.2668H128.447V26.2559C128.447 24.6239 129.535 23.6092 131.059 23.6092C132.546 23.6092 133.634 24.6239 133.634 26.2559V36.2668H139.944V24.8054C139.944 20.925 137.188 18.1679 132.944 18.1679C131.167 18.1679 129.607 18.6758 128.447 19.583L128.428 10.5522H122.117L122.136 36.2658V36.2668Z" fill="white"/>
<path d="M152.094 36.3989C150.184 36.3989 148.479 36.0121 146.98 35.2384C145.505 34.4405 144.345 33.3404 143.499 31.9381C142.652 30.5358 142.229 28.9521 142.229 27.1871C142.229 25.4222 142.64 23.8506 143.462 22.4725C144.309 21.0701 145.445 19.97 146.871 19.1722C148.298 18.3743 149.906 17.9754 151.695 17.9754C153.436 17.9754 154.971 18.3501 156.301 19.0996C157.631 19.8491 158.67 20.8888 159.42 22.2186C160.193 23.5484 160.58 25.0716 160.58 26.7882C160.58 27.1025 160.556 27.441 160.508 27.8037C160.484 28.1422 160.423 28.5411 160.326 29.0005L145.131 29.0368V25.2287L157.969 25.1925L155.575 26.7882C155.551 25.7727 155.394 24.9386 155.104 24.2858C154.814 23.6088 154.379 23.1011 153.798 22.7626C153.242 22.3999 152.553 22.2186 151.731 22.2186C150.861 22.2186 150.099 22.4241 149.446 22.8351C148.818 23.222 148.322 23.7781 147.959 24.5034C147.621 25.2287 147.452 26.1112 147.452 27.1509C147.452 28.1905 147.633 29.0851 147.996 29.8346C148.383 30.56 148.914 31.1281 149.591 31.5392C150.293 31.926 151.115 32.1194 152.058 32.1194C152.928 32.1194 153.714 31.9744 154.415 31.6842C155.116 31.3699 155.733 30.9105 156.265 30.3061L159.311 33.3525C158.441 34.368 157.389 35.1296 156.156 35.6373C154.923 36.1451 153.569 36.3989 152.094 36.3989Z" fill="white"/>
<path d="M111.436 65.861C109.502 65.861 107.713 65.5225 106.069 64.8455C104.449 64.1685 103.022 63.2256 101.789 62.0167C100.556 60.8078 99.6011 59.4055 98.9242 57.8097C98.2472 56.1898 97.9087 54.449 97.9087 52.5873C97.9087 50.7014 98.2472 48.9606 98.9242 47.3649C99.6011 45.7691 100.544 44.3789 101.753 43.1942C102.962 41.9853 104.376 41.0544 105.996 40.4016C107.64 39.7247 109.429 39.3862 111.364 39.3862C113.274 39.3862 115.039 39.7247 116.659 40.4016C118.303 41.0544 119.729 41.9853 120.938 43.1942C122.171 44.3789 123.126 45.7812 123.803 47.4011C124.48 48.9969 124.819 50.7377 124.819 52.6236C124.819 54.4853 124.48 56.2261 123.803 57.846C123.126 59.4417 122.183 60.8441 120.974 62.053C119.766 63.2377 118.339 64.1685 116.695 64.8455C115.075 65.5225 113.322 65.861 111.436 65.861ZM111.364 60.6748C112.887 60.6748 114.217 60.3363 115.353 59.6593C116.514 58.9824 117.408 58.0394 118.037 56.8305C118.665 55.5975 118.98 54.183 118.98 52.5873C118.98 51.3784 118.798 50.2904 118.436 49.3233C118.073 48.332 117.553 47.4858 116.876 46.7846C116.199 46.0593 115.389 45.5153 114.446 45.1526C113.528 44.7657 112.5 44.5723 111.364 44.5723C109.84 44.5723 108.499 44.9108 107.338 45.5878C106.202 46.2406 105.319 47.1715 104.691 48.3803C104.062 49.5651 103.748 50.9674 103.748 52.5873C103.748 53.7962 103.929 54.8963 104.292 55.8876C104.654 56.8789 105.162 57.7372 105.815 58.4625C106.492 59.1637 107.302 59.7077 108.245 60.0945C109.188 60.4814 110.227 60.6748 111.364 60.6748Z" fill="white"/>
<path d="M139.798 65.4258V55.3799C139.798 54.4611 139.508 53.7237 138.928 53.1676C138.372 52.5873 137.658 52.2972 136.788 52.2972C136.184 52.2972 135.652 52.4301 135.192 52.6961C134.733 52.9379 134.37 53.3006 134.104 53.7841C133.838 54.2435 133.705 54.7754 133.705 55.3799L131.566 54.3281C131.566 52.95 131.868 51.7411 132.472 50.7014C133.077 49.6618 133.911 48.8639 134.975 48.3078C136.063 47.7275 137.284 47.4374 138.638 47.4374C139.943 47.4374 141.092 47.7517 142.083 48.3803C143.098 48.9848 143.896 49.7948 144.477 50.8102C145.057 51.8257 145.347 52.9379 145.347 54.1468V65.4258H139.798ZM128.156 65.4258V47.8001H133.705V65.4258H128.156Z" fill="white"/>
<path d="M150.534 72.1903H156.882L159.674 65.693L166.964 47.957H160.218L157.172 58.1494L154.125 47.957H147.379L154.125 64.7858L150.534 72.1903Z" fill="white"/>
<path d="M178.823 65.4258L174.579 58.5713L173.383 57.8097L166.456 47.8001H172.947L176.9 54.2193L178.061 54.9447L185.242 65.4258H178.823ZM166.129 65.4258L173.346 55.1623L176.501 58.7164L172.186 65.4258H166.129ZM178.025 57.7735L174.869 54.2193L178.859 47.8001H184.879L178.025 57.7735Z" fill="white"/>
<path d="M105.488 97.6367V72.395H111.182V97.6367H105.488ZM97.4735 77.0009V72.0323H119.197V77.0009H97.4735Z" fill="white"/>
<path d="M118.836 97.6367V80.011H124.385V97.6367H118.836ZM124.385 87.9535L122.064 86.1401C122.523 84.085 123.297 82.4893 124.385 81.3529C125.473 80.2165 126.984 79.6483 128.918 79.6483C129.764 79.6483 130.502 79.7813 131.13 80.0473C131.783 80.2891 132.351 80.6759 132.835 81.2078L129.535 85.3785C129.293 85.1126 128.991 84.907 128.628 84.762C128.265 84.6169 127.854 84.5444 127.395 84.5444C126.476 84.5444 125.739 84.8345 125.183 85.4148C124.651 85.9709 124.385 86.8171 124.385 87.9535Z" fill="white"/>
<path d="M142.446 98.0357C140.826 98.0357 139.388 97.7093 138.13 97.0564C136.897 96.3795 135.93 95.4607 135.229 94.3002C134.528 93.1154 134.177 91.7615 134.177 90.2383V80.011H139.726V90.1657C139.726 90.7702 139.823 91.29 140.016 91.7252C140.234 92.1604 140.548 92.4989 140.959 92.7407C141.37 92.9825 141.866 93.1034 142.446 93.1034C143.268 93.1034 143.921 92.8495 144.405 92.3418C144.888 91.8098 145.13 91.0845 145.13 90.1657V80.011H150.679V90.202C150.679 91.7494 150.328 93.1154 149.627 94.3002C148.926 95.4607 147.959 96.3795 146.726 97.0564C145.493 97.7093 144.066 98.0357 142.446 98.0357Z" fill="white"/>
<path d="M156.882 97.9035H163.193V85.4274H167.109V80.1685H163.193V72.1899H156.882V80.1685H152.964V85.4274H156.882V97.9035Z" fill="white"/>
<path d="M169.321 97.9036H175.632V87.8927C175.632 86.2607 176.72 85.246 178.244 85.246C179.732 85.246 180.818 86.2617 180.818 87.8927V97.9036H187.129V86.4422C187.129 82.5609 184.373 79.8057 180.13 79.8057C178.353 79.8057 176.793 80.3135 175.632 81.2207V72.1938H169.321V97.9036Z" fill="white"/>
</g>
<defs>
<clipPath id="clip0_322_1197">
<rect width="187.065" height="107.637" fill="white" transform="translate(0.0646362)"/>
</clipPath>
</defs>
</svg>
