<svg width="155" height="153" viewBox="0 0 155 153" fill="none" xmlns="http://www.w3.org/2000/svg">
<path d="M50.0284 29.722C49.5465 30.2039 49.1807 30.7849 48.8752 31.4217L48.8408 31.3873L0.57664 140.111L0.623974 140.158C-0.271081 141.892 1.22642 145.421 4.29456 148.493C7.36271 151.561 10.8913 153.059 12.6255 152.164L12.6685 152.207L121.392 103.938L121.357 103.9C121.99 103.598 122.571 103.233 123.057 102.742C129.779 96.0206 118.879 74.2252 98.7186 54.0606C78.5497 33.896 56.7543 23.0005 50.0284 29.722Z" fill="#DD2E44"/>
<path d="M55.941 49.1375L1.79013 137.378L0.57664 140.11L0.623974 140.158C-0.271081 141.892 1.22642 145.42 4.29456 148.493C5.29289 149.491 6.32995 150.249 7.3455 150.89L73.1536 70.6532L55.941 49.1375Z" fill="#EA596E"/>
<path d="M99.024 53.7248C119.12 73.8291 130.278 95.2588 123.935 101.593C117.596 107.936 96.1668 96.7821 76.0581 76.6864C55.9581 56.5821 44.8044 35.1438 51.1429 28.8052C57.4857 22.4667 78.9154 33.6204 99.024 53.7248Z" fill="#A0041E"/>
<path d="M79.9957 56.0614C79.1394 56.7543 78.0206 57.1157 76.8372 56.9866C73.1021 56.5821 69.9608 55.2826 67.7619 53.23C65.4338 51.0569 64.2849 48.1393 64.599 45.2175C65.1498 40.0881 70.2964 35.3805 79.0705 36.3272C82.4829 36.693 84.0062 35.5957 84.0579 35.0707C84.1181 34.55 82.8659 33.1515 79.4535 32.7814C75.7184 32.3769 72.5771 31.0773 70.3739 29.0247C68.0459 26.8517 66.8926 23.9341 67.2111 21.0123C67.7705 15.8829 72.9127 11.1753 81.6782 12.1263C84.1655 12.3931 85.4779 11.881 86.033 11.5496C86.4763 11.2785 86.6527 11.0204 86.6699 10.8697C86.7215 10.3491 85.4865 8.95054 82.0655 8.58047C79.7031 8.32228 77.9904 6.20513 78.2529 3.8384C78.5068 1.47597 80.6197 -0.232382 82.9907 0.0258075C91.7562 0.968198 95.784 6.66127 95.2289 11.7949C94.6694 16.9329 89.5272 21.6319 80.7531 20.6895C78.2658 20.4184 76.9663 20.9348 76.4069 21.2662C75.9637 21.533 75.7829 21.7954 75.7657 21.9418C75.7098 22.4667 76.9534 23.861 80.3744 24.231C89.1399 25.1777 93.1677 30.8665 92.6125 36.0002C92.0574 41.1295 86.9152 45.8372 78.1454 44.8862C75.6581 44.6194 74.35 45.1357 73.7906 45.4628C73.343 45.7382 73.1709 45.9964 73.1537 46.1427C73.0978 46.6634 74.3414 48.0619 77.7581 48.432C80.1162 48.6901 81.8332 50.8116 81.5707 53.174C81.4502 54.3531 80.852 55.3729 79.9957 56.0614Z" fill="#AA8DD8"/>
<path d="M131.939 95.8572C140.429 93.4603 146.285 97.2471 147.68 102.217C149.074 107.183 146.053 113.47 137.567 115.858C134.254 116.788 133.26 118.371 133.393 118.875C133.54 119.383 135.222 120.217 138.527 119.284C147.013 116.895 152.869 120.682 154.264 125.648C155.666 130.618 152.637 136.896 144.147 139.289C140.838 140.218 139.839 141.806 139.986 142.31C140.128 142.813 141.806 143.648 145.115 142.719C147.396 142.077 149.78 143.407 150.421 145.692C151.058 147.981 149.728 150.357 147.439 151.002C138.957 153.39 133.096 149.612 131.693 144.638C130.299 139.672 133.324 133.394 141.819 131.001C145.132 130.067 146.126 128.488 145.98 127.98C145.842 127.477 144.164 126.638 140.859 127.567C132.365 129.96 126.513 126.181 125.114 121.203C123.715 116.237 126.741 109.959 135.231 107.562C138.536 106.637 139.53 105.044 139.392 104.545C139.246 104.037 137.572 103.203 134.262 104.132C131.973 104.778 129.602 103.444 128.957 101.159C128.316 98.878 129.649 96.5027 131.939 95.8572Z" fill="#77B255"/>
<path d="M98.9769 84.2518C97.7118 84.2518 96.4639 83.6967 95.6119 82.6382C94.1273 80.7792 94.4328 78.0725 96.2831 76.5879C97.2212 75.8349 119.598 58.2608 151.221 62.7834C153.575 63.1191 155.21 65.2965 154.875 67.6503C154.539 69.9998 152.379 71.6522 150.004 71.2994C122.063 67.3318 101.864 83.1502 101.666 83.3094C100.866 83.9463 99.9193 84.2518 98.9769 84.2518Z" fill="#AA8DD8"/>
<path d="M24.7603 66.3503C24.3515 66.3503 23.9341 66.2901 23.521 66.1696C21.2446 65.4854 19.9537 63.0886 20.6379 60.8122C25.5134 44.5764 29.9327 18.6671 24.5021 11.9112C23.8954 11.1452 22.9788 10.3922 20.8789 10.5514C16.8425 10.8612 17.2255 19.3771 17.2298 19.4632C17.4105 21.8342 15.629 23.8998 13.2623 24.0762C10.8568 24.2225 8.82575 22.4754 8.64932 20.1044C8.20609 14.1703 10.0521 2.74117 20.2334 1.97091C24.7775 1.62665 28.5514 3.20591 31.215 6.51934C41.4178 19.2179 31.0601 56.0314 28.8827 63.2865C28.3233 65.1498 26.6107 66.3503 24.7603 66.3503Z" fill="#77B255"/>
<path d="M109.73 44.8343C113.295 44.8343 116.185 41.9444 116.185 38.3795C116.185 34.8147 113.295 31.9248 109.73 31.9248C106.166 31.9248 103.276 34.8147 103.276 38.3795C103.276 41.9444 106.166 44.8343 109.73 44.8343Z" fill="#5C913B"/>
<path d="M8.6063 83.5627C13.3594 83.5627 17.2126 79.7095 17.2126 74.9564C17.2126 70.2033 13.3594 66.3501 8.6063 66.3501C3.85317 66.3501 0 70.2033 0 74.9564C0 79.7095 3.85317 83.5627 8.6063 83.5627Z" fill="#9266CC"/>
<path d="M139.852 87.866C143.417 87.866 146.307 84.9761 146.307 81.4113C146.307 77.8464 143.417 74.9565 139.852 74.9565C136.288 74.9565 133.398 77.8464 133.398 81.4113C133.398 84.9761 136.288 87.866 139.852 87.866Z" fill="#5C913B"/>
<path d="M101.124 139.504C104.689 139.504 107.579 136.614 107.579 133.049C107.579 129.484 104.689 126.594 101.124 126.594C97.5593 126.594 94.6694 129.484 94.6694 133.049C94.6694 136.614 97.5593 139.504 101.124 139.504Z" fill="#5C913B"/>
<path d="M120.488 23.3186C125.241 23.3186 129.094 19.4654 129.094 14.7123C129.094 9.95913 125.241 6.10596 120.488 6.10596C115.735 6.10596 111.882 9.95913 111.882 14.7123C111.882 19.4654 115.735 23.3186 120.488 23.3186Z" fill="#FFCC4D"/>
<path d="M139.852 40.5313C143.417 40.5313 146.307 37.6414 146.307 34.0766C146.307 30.5117 143.417 27.6218 139.852 27.6218C136.288 27.6218 133.398 30.5117 133.398 34.0766C133.398 37.6414 136.288 40.5313 139.852 40.5313Z" fill="#FFCC4D"/>
<path d="M126.943 57.7439C130.508 57.7439 133.398 54.854 133.398 51.2892C133.398 47.7244 130.508 44.8345 126.943 44.8345C123.378 44.8345 120.488 47.7244 120.488 51.2892C120.488 54.854 123.378 57.7439 126.943 57.7439Z" fill="#FFCC4D"/>
<path d="M32.2736 105.078C35.8384 105.078 38.7283 102.189 38.7283 98.6237C38.7283 95.0588 35.8384 92.1689 32.2736 92.1689C28.7087 92.1689 25.8188 95.0588 25.8188 98.6237C25.8188 102.189 28.7087 105.078 32.2736 105.078Z" fill="#FFCC4D"/>
</svg>
